<svg width="36" height="36" viewBox="0 0 36 36" fill="none" xmlns="http://www.w3.org/2000/svg">
<path d="M30.1976 1.73654L18.0001 13.9341L5.80246 1.73654C5.2633 1.19738 4.53203 0.894478 3.76953 0.894477C3.00704 0.894477 2.27577 1.19738 1.7366 1.73654C1.19743 2.27571 0.894533 3.00698 0.894532 3.76948C0.894534 4.53197 1.19743 5.26324 1.7366 5.80241L13.9342 18L1.7366 30.1976C1.19743 30.7368 0.894534 31.468 0.894532 32.2305C0.894533 32.993 1.19743 33.7243 1.7366 34.2635C2.27577 34.8026 3.00704 35.1055 3.76953 35.1055C4.53203 35.1055 5.2633 34.8026 5.80246 34.2635L18.0001 22.0659L30.1976 34.2635C30.7368 34.8026 31.4681 35.1055 32.2306 35.1055C32.9931 35.1055 33.7243 34.8026 34.2635 34.2635C34.8027 33.7243 35.1056 32.993 35.1056 32.2305C35.1056 31.468 34.8027 30.7368 34.2635 30.1976L22.0659 18L34.2635 5.80241C34.8027 5.26324 35.1056 4.53197 35.1056 3.76947C35.1056 3.00698 34.8027 2.27571 34.2635 1.73654C33.7243 1.19738 32.9931 0.894475 32.2306 0.894473C31.4681 0.894476 30.7368 1.19738 30.1976 1.73654Z" fill="#F6F6F6" fill-opacity="0.5"/>
</svg>
